<?xml version="1.0" encoding="UTF-8"?>
<svg id="Calque_1" data-name="Calque 1" xmlns="http://www.w3.org/2000/svg" viewBox="0 0 689.07 508.01">
  <defs>
    <style>
      .cls-1 {
        fill: #fff;
      }

      .cls-1, .cls-2, .cls-3, .cls-4 {
        stroke-miterlimit: 10;
      }

      .cls-1, .cls-4 {
        stroke: #432e17;
      }

      .cls-2 {
        stroke: #b1dee8;
        stroke-width: .5px;
      }

      .cls-2, .cls-5 {
        fill: #b1dee8;
      }

      .cls-6 {
        fill: #c6a173;
      }

      .cls-6, .cls-7, .cls-5, .cls-8 {
        stroke-width: 0px;
      }

      .cls-7, .cls-3 {
        fill: #b0dde8;
      }

      .cls-3 {
        stroke: #b0dde8;
      }

      .cls-4 {
        fill: #432e18;
      }

      .cls-8 {
        fill: #432e17;
      }
    </style>
  </defs>
  <path class="cls-2" d="M46.55,342.52c-3.06,2.17-77.57,40.12-31.07,72.28s35.82,45.21,66.68,68.95,90.2-7.12,143.6,1.19,70.47,32.04,114.16,18.99,56.74-39.16,111.34-26.11,121.99,20.18,141.7,4.75,61.25-24.92,73.12-30.86,30.86-13.28,18.99-36.9-57.21-50.54-66.46-48.6-481.85-87.76-572.04-23.68Z"/>
  <g>
    <g>
      <path class="cls-6" d="M202.98,298.86c-11.8-7.23-23.59-14.45-35.39-21.68-5.85-3.58-11.82-7.21-18.48-8.84-7.61-1.85-15.58-.95-23.41-1.1-4.82-.09-9.71-.57-14.4.55-3.46.83-6.65,2.49-9.81,4.14-10.55,5.52-21.1,11.03-31.45,16.9-7.78,4.41-15.76,9.33-20.34,17.01-3.39,5.68-4.6,12.37-5.59,18.91-1.01,6.66-1.87,13.34-2.56,20.04-.57,5.53-1.03,11.15.07,16.6,1,4.97,3.28,9.6,5.94,13.92,8.77,14.19,22.14,25.47,37.6,31.72,16.04,6.49,33.86,7.54,51.08,5.78,17.22-1.76,34.02-6.22,50.8-10.45,12.48-3.15,26-6.83,33.7-17.14,5.02-6.73,6.76-15.37,7.24-23.76.91-15.78-2.18-31.78-8.91-46.08-3.47-7.39-9.82-11.75-16.1-16.52"/>
      <path class="cls-8" d="M203.68,297.66c-8.43-5.16-16.85-10.32-25.28-15.48-4.13-2.53-8.24-5.07-12.38-7.58-3.8-2.3-7.67-4.48-11.82-6.09s-8.88-2.45-13.51-2.66-9.52.08-14.28.02-9.43-.51-14.1.3-8.73,3.1-12.81,5.24c-8.56,4.48-17.11,8.96-25.55,13.64-7.16,3.97-14.66,7.93-20.5,13.79-2.9,2.91-5.23,6.28-6.84,10.06-1.71,4.02-2.66,8.29-3.38,12.58-.79,4.71-1.43,9.45-2.02,14.19s-1.2,9.61-1.51,14.44-.14,9.38,1.13,13.9c1.2,4.26,3.22,8.26,5.54,12.01,4.16,6.73,9.34,12.84,15.28,18.06s12.55,9.55,19.7,12.82c8.1,3.7,16.74,5.97,25.56,7.13,18.5,2.43,37.19-.17,55.28-4.16,9.19-2.03,18.32-4.37,27.43-6.71,7.35-1.89,14.78-4.01,21.42-7.79,6.88-3.92,12.15-9.66,15.06-17.06,3.1-7.88,3.65-16.75,3.4-25.14-.27-8.98-1.79-17.94-4.51-26.5-1.36-4.27-2.97-8.54-4.97-12.55-1.77-3.54-4.36-6.61-7.27-9.26s-5.99-4.87-9.07-7.2c-.6-.46-1.55-.09-1.9.5-.42.71-.1,1.45.5,1.9,6.11,4.64,12.41,9.18,15.75,16.33,3.67,7.86,6.19,16.29,7.56,24.85s1.67,17.28.49,25.77c-1.07,7.71-3.74,15.26-9.43,20.78-5.22,5.07-12.1,8.02-18.94,10.19-7.86,2.5-15.97,4.32-23.97,6.3-17.72,4.38-35.78,8.21-54.13,7.88-16.8-.3-33.45-4.29-47.58-13.63-6.4-4.24-12.16-9.43-17.07-15.33s-9.77-13.16-11.69-20.89c-1.1-4.45-1.03-9.08-.68-13.63s.95-9.42,1.55-14.11,1.19-9.01,1.98-13.48c.73-4.08,1.67-8.2,3.43-11.97,3.37-7.2,9.66-12.13,16.29-16.2,7.62-4.67,15.58-8.82,23.47-13.01,4.18-2.22,8.38-4.41,12.58-6.61s8-4.15,12.54-4.64,9.08,0,13.6,0,9.16-.26,13.74.03,8.79,1.23,12.91,2.99,7.7,3.94,11.38,6.19c8.08,4.94,16.15,9.89,24.23,14.84l12.01,7.35c1.53.94,2.93-1.47,1.4-2.4h0Z"/>
    </g>
    <path class="cls-7" d="M195.67,341.1c-.79-.05-1.52.18-2.26.42-.64.2-1.09.2-1.73.02-1.44-.41-2.83-.96-4.29-.26-.42.2-.78.54-1.26.61-.56.08-1.14-.05-1.69-.14-1.48-.26-2.82-.41-4.23.21-.69.3-.85,1.31-.5,1.9.41.71,1.21.81,1.9.5.85-.38,2.12.09,2.98.21.71.1,1.38.14,2.09.03.65-.11,1.18-.41,1.75-.73.9-.5,2.1.3,3.02.48.76.15,1.49.16,2.24-.02.66-.16,1.27-.5,1.97-.45.75.05,1.39-.68,1.39-1.39,0-.8-.64-1.34-1.39-1.39h0Z"/>
    <path class="cls-7" d="M193.2,363.18c-.79-.05-1.52.18-2.26.42-.64.2-1.09.2-1.73.02-1.44-.41-2.83-.96-4.29-.26-.42.2-.78.54-1.26.61-.56.08-1.14-.05-1.69-.14-1.48-.26-2.82-.41-4.23.21-.69.3-.85,1.31-.5,1.9.41.71,1.21.81,1.9.5.85-.38,2.12.09,2.98.21.71.1,1.38.14,2.09.03.65-.11,1.18-.41,1.75-.73.9-.5,2.1.3,3.02.48.76.15,1.49.16,2.24-.02.66-.16,1.27-.5,1.97-.45.75.05,1.39-.68,1.39-1.39,0-.8-.64-1.34-1.39-1.39h0Z"/>
    <path class="cls-8" d="M160.12,327.64c8.03,6.61,12.19,18.19,9.81,28.47-.65,2.74-1.86,5.43-3.43,7.75-1.72,2.57-3.52,5.26-5.93,7.33-1.05.89-2.55.28-2.23-1.17.29-.98.84-1.8,1.42-2.61,0,0,.37.12.37.12-.23.89-.57,1.93-.55,2.78-.01-.03-.09-.06-.12-.06-.03,0-.03,0-.02,0,.02-.01.06-.05.1-.08,1.7-2.35,2.83-5.08,4.16-7.67.66-1.33,1.3-2.79,1.77-4.19,2.03-6.3,1.41-13.15-.58-19.39-1.26-3.85-2.95-7.61-5.11-11.04,0,0,.32-.22.32-.22h0Z"/>
    <circle class="cls-1" cx="202.16" cy="341.3" r="5.95"/>
    <circle class="cls-1" cx="200.44" cy="362.93" r="5.95"/>
    <circle class="cls-4" cx="202.04" cy="341.34" r="1.57"/>
    <circle class="cls-4" cx="200.59" cy="362.93" r="1.57"/>
    <path class="cls-3" d="M197.36,339.27c-.29-.06-1.64-.42-1.7.65s.68.94.49,1.72-.87.59-.54,1.33,1.05.56.67,1.32-.54.78-.16,1.03,2-.28,1.76-.82-.92-1.49-.52-1.62.87-.59.48-1.27-.94-1.1-.42-1.2.2-1.09-.05-1.14Z"/>
    <path class="cls-3" d="M194.91,361.38c-.29-.06-1.64-.42-1.7.65s.68.94.49,1.72-.87.59-.54,1.33,1.05.56.67,1.32-.54.78-.16,1.03,2-.28,1.76-.82-.92-1.49-.52-1.62.87-.59.48-1.27-.94-1.1-.42-1.2.2-1.09-.05-1.14Z"/>
    <path class="cls-8" d="M210.68,358.77c-1.96,1.47-2.7,3.91-3.55,6.11-.65,1.89-1.27,3.81-2.07,5.65-.03.07-.11.34-.14.36-.04-.07-.05-.1-.16-.14-.1-.02-.16.02-.18.05.03,0,.05-.04.08-.07.1-.11.34-.44.44-.56-.04.31-.05.62-.2.91-.06.07-.11.12-.25.1-.13-.03-.16-.11-.19-.21-.05-.23-.03-.36-.04-.57.13-3.84,1.75-10.96,6.26-11.65h0Z"/>
    <path class="cls-8" d="M202.99,330.5c.43,2.42,2.28,4.17,3.86,5.93,1.39,1.43,2.83,2.85,4.12,4.39.04.06.25.25.26.29-.08,0-.11,0-.19.08-.06.08-.05.15-.03.18,0-.03-.01-.06-.03-.1-.05-.14-.24-.5-.3-.64.26.17.53.33.72.58.04.08.06.15-.02.27-.09.1-.17.1-.27.08-.23-.06-.34-.14-.52-.22-3.37-1.85-8.99-6.5-7.58-10.83h0Z"/>
  </g>
  <g>
    <g>
      <path class="cls-6" d="M204.37,204.96c-11.8-7.23-23.59-14.45-35.39-21.68-5.85-3.58-11.82-7.21-18.48-8.84-7.61-1.85-15.58-.95-23.41-1.1-4.82-.09-9.71-.57-14.4.55-3.46.83-6.65,2.49-9.81,4.14-10.55,5.52-21.1,11.03-31.45,16.9-7.78,4.41-15.76,9.33-20.34,17.01-3.39,5.68-4.6,12.37-5.59,18.91-1.01,6.66-1.87,13.34-2.56,20.04-.57,5.53-1.03,11.15.07,16.6,1,4.97,3.28,9.6,5.94,13.92,8.77,14.19,22.14,25.47,37.6,31.72,16.04,6.49,33.86,7.54,51.08,5.78,17.22-1.76,34.02-6.22,50.8-10.45,12.48-3.15,26-6.83,33.7-17.14,5.02-6.73,6.76-15.37,7.24-23.76.91-15.78-2.18-31.78-8.91-46.08-3.47-7.39-9.82-11.75-16.1-16.52"/>
      <path class="cls-8" d="M205.07,203.76c-8.43-5.16-16.85-10.32-25.28-15.48-4.13-2.53-8.24-5.07-12.38-7.58-3.8-2.3-7.67-4.48-11.82-6.09s-8.88-2.45-13.51-2.66-9.52.08-14.28.02-9.43-.51-14.1.3-8.73,3.1-12.81,5.24c-8.56,4.48-17.11,8.96-25.55,13.64-7.16,3.97-14.66,7.93-20.5,13.79-2.9,2.91-5.23,6.28-6.84,10.06-1.71,4.02-2.66,8.29-3.38,12.58-.79,4.71-1.43,9.45-2.02,14.19s-1.2,9.61-1.51,14.44-.14,9.38,1.13,13.9c1.2,4.26,3.22,8.26,5.54,12.01,4.16,6.73,9.34,12.84,15.28,18.06s12.55,9.55,19.7,12.82c8.1,3.7,16.74,5.97,25.56,7.13,18.5,2.43,37.19-.17,55.28-4.16,9.19-2.03,18.32-4.37,27.43-6.71,7.35-1.89,14.78-4.01,21.42-7.79,6.88-3.92,12.15-9.66,15.06-17.06,3.1-7.88,3.65-16.75,3.4-25.14-.27-8.98-1.79-17.94-4.51-26.5-1.36-4.27-2.97-8.54-4.97-12.55-1.77-3.54-4.36-6.61-7.27-9.26s-5.99-4.87-9.07-7.2c-.6-.46-1.55-.09-1.9.5-.42.71-.1,1.45.5,1.9,6.11,4.64,12.41,9.18,15.75,16.33,3.67,7.86,6.19,16.29,7.56,24.85s1.67,17.28.49,25.77c-1.07,7.71-3.74,15.26-9.43,20.78-5.22,5.07-12.1,8.02-18.94,10.19-7.86,2.5-15.97,4.32-23.97,6.3-17.72,4.38-35.78,8.21-54.13,7.88-16.8-.3-33.45-4.29-47.58-13.63-6.4-4.24-12.16-9.43-17.07-15.33s-9.77-13.16-11.69-20.89c-1.1-4.45-1.03-9.08-.68-13.63s.95-9.42,1.55-14.11,1.19-9.01,1.98-13.48c.73-4.08,1.67-8.2,3.43-11.97,3.37-7.2,9.66-12.13,16.29-16.2,7.62-4.67,15.58-8.82,23.47-13.01,4.18-2.22,8.38-4.41,12.58-6.61s8-4.15,12.54-4.64,9.08,0,13.6,0,9.16-.26,13.74.03,8.79,1.23,12.91,2.99,7.7,3.94,11.38,6.19c8.08,4.94,16.15,9.89,24.23,14.84l12.01,7.35c1.53.94,2.93-1.47,1.4-2.4h0Z"/>
    </g>
    <path class="cls-8" d="M161.5,233.74c8.03,6.61,12.19,18.19,9.81,28.47-.65,2.74-1.86,5.43-3.43,7.75-1.72,2.57-3.52,5.26-5.93,7.33-1.05.89-2.55.28-2.23-1.17.29-.98.84-1.8,1.42-2.61,0,0,.37.12.37.12-.23.89-.57,1.93-.55,2.78-.01-.03-.09-.06-.12-.06-.03,0-.03,0-.02,0,.02-.01.06-.05.1-.08,1.7-2.35,2.83-5.08,4.16-7.67.66-1.33,1.3-2.79,1.77-4.19,2.03-6.3,1.41-13.15-.58-19.39-1.26-3.85-2.95-7.61-5.11-11.04,0,0,.32-.22.32-.22h0Z"/>
    <circle class="cls-1" cx="203.54" cy="247.4" r="5.95"/>
    <circle class="cls-1" cx="201.83" cy="269.02" r="5.95"/>
    <circle class="cls-4" cx="203.42" cy="247.44" r="1.57"/>
    <circle class="cls-4" cx="201.97" cy="269.02" r="1.57"/>
    <path class="cls-3" d="M198.75,245.37c-.29-.06-1.64-.42-1.7.65s.68.94.49,1.72-.87.59-.54,1.33,1.05.56.67,1.32-.54.78-.16,1.03,2-.28,1.76-.82-.92-1.49-.52-1.62.87-.59.48-1.27-.94-1.1-.42-1.2.2-1.09-.05-1.14Z"/>
    <path class="cls-3" d="M196.29,267.47c-.29-.06-1.64-.42-1.7.65s.68.94.49,1.72-.87.59-.54,1.33,1.05.56.67,1.32-.54.78-.16,1.03,2-.28,1.76-.82-.92-1.49-.52-1.62.87-.59.48-1.27-.94-1.1-.42-1.2.2-1.09-.05-1.14Z"/>
    <path class="cls-8" d="M212.07,264.87c-1.96,1.47-2.7,3.91-3.55,6.11-.65,1.89-1.27,3.81-2.07,5.65-.03.07-.11.34-.14.36-.04-.07-.05-.1-.16-.14-.1-.02-.16.02-.18.05.03,0,.05-.04.08-.07.1-.11.34-.44.44-.56-.04.31-.05.62-.2.91-.06.07-.11.12-.25.1-.13-.03-.16-.11-.19-.21-.05-.23-.03-.36-.04-.57.13-3.84,1.75-10.96,6.26-11.65h0Z"/>
    <path class="cls-8" d="M204.38,236.6c.43,2.42,2.28,4.17,3.86,5.93,1.39,1.43,2.83,2.85,4.12,4.39.04.06.25.25.26.29-.08,0-.11,0-.19.08-.06.08-.05.15-.03.18,0-.03-.01-.06-.03-.1-.05-.14-.24-.5-.3-.64.26.17.53.33.72.58.04.08.06.15-.02.27-.09.1-.17.1-.27.08-.23-.06-.34-.14-.52-.22-3.37-1.85-8.99-6.5-7.58-10.83h0Z"/>
  </g>
  <g>
    <g>
      <path class="cls-6" d="M383.07,225.6c-11.8-7.23-23.59-14.45-35.39-21.68-5.85-3.58-11.82-7.21-18.48-8.84-7.61-1.85-15.58-.95-23.41-1.1-4.82-.09-9.71-.57-14.4.55-3.46.83-6.65,2.49-9.81,4.14-10.55,5.52-21.1,11.03-31.45,16.9-7.78,4.41-15.76,9.33-20.34,17.01-3.39,5.68-4.6,12.37-5.59,18.91-1.01,6.66-1.87,13.34-2.56,20.04-.57,5.53-1.03,11.15.07,16.6,1,4.97,3.28,9.6,5.94,13.92,8.77,14.19,22.14,25.47,37.6,31.72,16.04,6.49,33.86,7.54,51.08,5.78,17.22-1.76,34.02-6.22,50.8-10.45,12.48-3.15,26-6.83,33.7-17.14,5.02-6.73,6.76-15.37,7.24-23.76.91-15.78-2.18-31.78-8.91-46.08-3.47-7.39-9.82-11.75-16.1-16.52"/>
      <path class="cls-8" d="M383.77,224.4l-25.28-15.48c-4.13-2.53-8.24-5.07-12.38-7.58-3.8-2.3-7.67-4.48-11.82-6.09s-8.88-2.45-13.51-2.66-9.52.08-14.28.02-9.43-.51-14.1.3-8.73,3.1-12.81,5.24c-8.56,4.48-17.11,8.96-25.55,13.64-7.16,3.97-14.66,7.93-20.5,13.79-2.9,2.91-5.23,6.28-6.84,10.06-1.71,4.02-2.66,8.29-3.38,12.58-.79,4.71-1.43,9.45-2.02,14.19s-1.2,9.61-1.51,14.44-.14,9.38,1.13,13.9c1.2,4.26,3.22,8.26,5.54,12.01,4.16,6.73,9.34,12.84,15.28,18.06,5.91,5.19,12.55,9.55,19.7,12.82,8.1,3.7,16.74,5.97,25.56,7.13,18.5,2.43,37.19-.17,55.28-4.16,9.19-2.03,18.32-4.37,27.43-6.71,7.35-1.89,14.78-4.01,21.42-7.79,6.88-3.92,12.15-9.66,15.06-17.06,3.1-7.88,3.65-16.75,3.4-25.14-.27-8.98-1.79-17.94-4.51-26.5-1.36-4.27-2.97-8.54-4.97-12.55-1.77-3.54-4.36-6.61-7.27-9.26s-5.99-4.87-9.07-7.2c-.6-.46-1.55-.09-1.9.5-.42.71-.1,1.45.5,1.9,6.11,4.64,12.41,9.18,15.75,16.33,3.67,7.86,6.19,16.29,7.56,24.85,1.36,8.45,1.67,17.28.49,25.77-1.07,7.71-3.74,15.26-9.43,20.78-5.22,5.07-12.1,8.02-18.94,10.19-7.86,2.5-15.97,4.32-23.97,6.3-17.72,4.38-35.78,8.21-54.13,7.88-16.8-.3-33.45-4.29-47.58-13.63-6.4-4.24-12.16-9.43-17.07-15.33s-9.77-13.16-11.69-20.89c-1.1-4.45-1.03-9.08-.68-13.63s.95-9.42,1.55-14.11,1.19-9.01,1.98-13.48c.73-4.08,1.67-8.2,3.43-11.97,3.37-7.2,9.66-12.13,16.29-16.2,7.62-4.67,15.58-8.82,23.47-13.01,4.18-2.22,8.38-4.41,12.58-6.61s8-4.15,12.54-4.64,9.08,0,13.6,0,9.16-.26,13.74.03,8.79,1.23,12.91,2.99,7.7,3.94,11.38,6.19c8.08,4.94,16.15,9.89,24.23,14.84,4,2.45,8,4.9,12.01,7.35,1.53.94,2.93-1.47,1.4-2.4h0Z"/>
    </g>
    <path class="cls-8" d="M340.2,254.39c8.03,6.61,12.19,18.19,9.81,28.47-.65,2.74-1.86,5.43-3.43,7.75-1.72,2.57-3.52,5.26-5.93,7.33-1.05.89-2.55.28-2.23-1.17.29-.98.84-1.8,1.42-2.61,0,0,.37.12.37.12-.23.89-.57,1.93-.55,2.78-.01-.03-.09-.06-.12-.06-.03,0-.03,0-.02,0,.02-.01.06-.05.1-.08,1.7-2.35,2.83-5.08,4.16-7.67.66-1.33,1.3-2.79,1.77-4.19,2.03-6.3,1.41-13.15-.58-19.39-1.26-3.85-2.95-7.61-5.11-11.04,0,0,.32-.22.32-.22h0Z"/>
    <circle class="cls-1" cx="382.24" cy="268.05" r="5.95"/>
    <circle class="cls-1" cx="380.53" cy="289.67" r="5.95"/>
    <circle class="cls-4" cx="382.12" cy="268.08" r="1.57"/>
    <circle class="cls-4" cx="380.67" cy="289.67" r="1.57"/>
    <path class="cls-3" d="M377.45,266.02c-.29-.06-1.64-.42-1.7.65s.68.94.49,1.72-.87.59-.54,1.33,1.05.56.67,1.32-.54.78-.16,1.03,2-.28,1.76-.82-.92-1.49-.52-1.62.87-.59.48-1.27-.94-1.1-.42-1.2.2-1.09-.05-1.14Z"/>
    <path class="cls-3" d="M374.99,288.12c-.29-.06-1.64-.42-1.7.65s.68.94.49,1.72-.87.59-.54,1.33,1.05.56.67,1.32-.54.78-.16,1.03,2-.28,1.76-.82-.92-1.49-.52-1.62.87-.59.48-1.27-.94-1.1-.42-1.2.2-1.09-.05-1.14Z"/>
    <path class="cls-8" d="M390.77,285.51c-1.96,1.47-2.7,3.91-3.55,6.11-.65,1.89-1.27,3.81-2.07,5.65-.03.07-.11.34-.14.36-.04-.07-.05-.1-.16-.14-.1-.02-.16.02-.18.05.03,0,.05-.04.08-.07.1-.11.34-.44.44-.56-.04.31-.05.62-.2.91-.06.07-.11.12-.25.1-.13-.03-.16-.11-.19-.21-.05-.23-.03-.36-.04-.57.13-3.84,1.75-10.96,6.26-11.65h0Z"/>
    <path class="cls-8" d="M383.08,257.24c.43,2.42,2.28,4.17,3.86,5.93,1.39,1.43,2.83,2.85,4.12,4.39.04.06.25.25.26.29-.08,0-.11,0-.19.08-.06.08-.05.15-.03.18,0-.03-.01-.06-.03-.1-.05-.14-.24-.5-.3-.64.26.17.53.33.72.58.04.08.06.15-.02.27-.09.1-.17.1-.27.08-.23-.06-.34-.14-.52-.22-3.37-1.85-8.99-6.5-7.58-10.83h0Z"/>
  </g>
  <g>
    <g>
      <path class="cls-6" d="M448.95,330.96c-11.8-7.23-23.59-14.45-35.39-21.68-5.85-3.58-11.82-7.21-18.48-8.84-7.61-1.85-15.58-.95-23.41-1.1-4.82-.09-9.71-.57-14.4.55-3.46.83-6.65,2.49-9.81,4.14-10.55,5.52-21.1,11.03-31.45,16.9-7.78,4.41-15.76,9.33-20.34,17.01-3.39,5.68-4.6,12.37-5.59,18.91-1.01,6.66-1.87,13.34-2.56,20.04-.57,5.53-1.03,11.15.07,16.6,1,4.97,3.28,9.6,5.94,13.92,8.77,14.19,22.14,25.47,37.6,31.72,16.04,6.49,33.86,7.54,51.08,5.78,17.22-1.76,34.02-6.22,50.8-10.45,12.48-3.15,26-6.83,33.7-17.14,5.02-6.73,6.76-15.37,7.24-23.76.91-15.78-2.18-31.78-8.91-46.08-3.47-7.39-9.82-11.75-16.1-16.52"/>
      <path class="cls-8" d="M449.65,329.76c-8.43-5.16-16.85-10.32-25.28-15.48-4.13-2.53-8.24-5.07-12.38-7.58-3.8-2.3-7.67-4.48-11.82-6.09s-8.88-2.45-13.51-2.66-9.52.08-14.28.02-9.43-.51-14.1.3-8.73,3.1-12.81,5.24c-8.56,4.48-17.11,8.96-25.55,13.64-7.16,3.97-14.66,7.93-20.5,13.79-2.9,2.91-5.23,6.28-6.84,10.06-1.71,4.02-2.66,8.29-3.38,12.58-.79,4.71-1.43,9.45-2.02,14.19-.6,4.8-1.2,9.61-1.51,14.44s-.14,9.38,1.13,13.9c1.2,4.26,3.22,8.26,5.54,12.01,4.16,6.73,9.34,12.84,15.28,18.06s12.55,9.55,19.7,12.82c8.1,3.7,16.74,5.97,25.56,7.13,18.5,2.43,37.19-.17,55.28-4.16,9.19-2.03,18.32-4.37,27.43-6.71,7.35-1.89,14.78-4.01,21.42-7.79,6.88-3.92,12.15-9.66,15.06-17.06,3.1-7.88,3.65-16.75,3.4-25.14-.27-8.98-1.79-17.94-4.51-26.5-1.36-4.27-2.97-8.54-4.97-12.55-1.77-3.54-4.36-6.61-7.27-9.26-2.85-2.6-5.99-4.87-9.07-7.2-.6-.46-1.55-.09-1.9.5-.42.71-.1,1.45.5,1.9,6.11,4.64,12.41,9.18,15.75,16.33,3.67,7.86,6.19,16.29,7.56,24.85,1.36,8.45,1.67,17.28.49,25.77-1.07,7.71-3.74,15.26-9.43,20.78-5.22,5.07-12.1,8.02-18.94,10.19-7.86,2.5-15.97,4.32-23.97,6.3-17.72,4.38-35.78,8.21-54.13,7.88-16.8-.3-33.45-4.29-47.58-13.63-6.4-4.24-12.16-9.43-17.07-15.33s-9.77-13.16-11.69-20.89c-1.1-4.45-1.03-9.08-.68-13.63s.95-9.42,1.55-14.11,1.19-9.01,1.98-13.48c.73-4.08,1.67-8.2,3.43-11.97,3.37-7.2,9.66-12.13,16.29-16.2,7.62-4.67,15.58-8.82,23.47-13.01,4.18-2.22,8.38-4.41,12.58-6.61s8-4.15,12.54-4.64,9.08,0,13.6,0,9.16-.26,13.74.03,8.79,1.23,12.91,2.99,7.7,3.94,11.38,6.19c8.08,4.94,16.15,9.89,24.23,14.84l12.01,7.35c1.53.94,2.93-1.47,1.4-2.4h0Z"/>
    </g>
    <path class="cls-8" d="M406.08,359.74c8.03,6.61,12.19,18.19,9.81,28.47-.65,2.74-1.86,5.43-3.43,7.75-1.72,2.57-3.52,5.26-5.93,7.33-1.05.89-2.55.28-2.23-1.17.29-.98.84-1.8,1.42-2.61,0,0,.37.12.37.12-.23.89-.57,1.93-.55,2.78-.01-.03-.09-.06-.12-.06-.03,0-.03,0-.02,0,.02-.01.06-.05.1-.08,1.7-2.35,2.83-5.08,4.16-7.67.66-1.33,1.3-2.79,1.77-4.19,2.03-6.3,1.41-13.15-.58-19.39-1.26-3.85-2.95-7.61-5.11-11.04,0,0,.32-.22.32-.22h0Z"/>
    <circle class="cls-1" cx="448.12" cy="373.41" r="5.95"/>
    <circle class="cls-1" cx="446.41" cy="395.03" r="5.95"/>
    <circle class="cls-4" cx="448.01" cy="373.44" r="1.57"/>
    <circle class="cls-4" cx="446.56" cy="395.03" r="1.57"/>
    <path class="cls-3" d="M443.33,371.37c-.29-.06-1.64-.42-1.7.65s.68.94.49,1.72-.87.59-.54,1.33,1.05.56.67,1.32-.54.78-.16,1.03,2-.28,1.76-.82-.92-1.49-.52-1.62.87-.59.48-1.27-.94-1.1-.42-1.2.2-1.09-.05-1.14Z"/>
    <path class="cls-3" d="M440.87,393.48c-.29-.06-1.64-.42-1.7.65s.68.94.49,1.72-.87.59-.54,1.33,1.05.56.67,1.32-.54.78-.16,1.03,2-.28,1.76-.82-.92-1.49-.52-1.62.87-.59.48-1.27-.94-1.1-.42-1.2.2-1.09-.05-1.14Z"/>
    <path class="cls-8" d="M456.65,390.87c-1.96,1.47-2.7,3.91-3.55,6.11-.65,1.89-1.27,3.81-2.07,5.65-.03.07-.11.34-.14.36-.04-.07-.05-.1-.16-.14-.1-.02-.16.02-.18.05.03,0,.05-.04.08-.07.1-.11.34-.44.44-.56-.04.31-.05.62-.2.91-.06.07-.11.12-.25.1-.13-.03-.16-.11-.19-.21-.05-.23-.03-.36-.04-.57.13-3.84,1.75-10.96,6.26-11.65h0Z"/>
    <path class="cls-8" d="M448.96,362.6c.43,2.42,2.28,4.17,3.86,5.93,1.39,1.43,2.83,2.85,4.12,4.39.04.06.25.25.26.29-.08,0-.11,0-.19.08-.06.08-.05.15-.03.18,0-.03-.01-.06-.03-.1-.05-.14-.24-.5-.3-.64.26.17.53.33.72.58.04.08.06.15-.02.27-.09.1-.17.1-.27.08-.23-.06-.34-.14-.52-.22-3.37-1.85-8.99-6.5-7.58-10.83h0Z"/>
  </g>
  <g>
    <g>
      <path class="cls-6" d="M323.1,117.64c-11.8-7.23-23.59-14.45-35.39-21.68-5.85-3.58-11.82-7.21-18.48-8.84-7.61-1.85-15.58-.95-23.41-1.1-4.82-.09-9.71-.57-14.4.55-3.46.83-6.65,2.49-9.81,4.14-10.55,5.52-21.1,11.03-31.45,16.9-7.78,4.41-15.76,9.33-20.34,17.01-3.39,5.68-4.6,12.37-5.59,18.91-1.01,6.66-1.87,13.34-2.56,20.04-.57,5.53-1.03,11.15.07,16.6,1,4.97,3.28,9.6,5.94,13.92,8.77,14.19,22.14,25.47,37.6,31.72,16.04,6.49,33.86,7.54,51.08,5.78,17.22-1.76,34.02-6.22,50.8-10.45,12.48-3.15,26-6.83,33.7-17.14,5.02-6.73,6.76-15.37,7.24-23.76.91-15.78-2.18-31.78-8.91-46.08-3.47-7.39-9.82-11.75-16.1-16.52"/>
      <path class="cls-8" d="M323.8,116.43l-25.28-15.48c-4.13-2.53-8.24-5.07-12.38-7.58-3.8-2.3-7.67-4.48-11.82-6.09s-8.88-2.45-13.51-2.66-9.52.08-14.28.02-9.43-.51-14.1.3-8.73,3.1-12.81,5.24c-8.56,4.48-17.11,8.96-25.55,13.64-7.16,3.97-14.66,7.93-20.5,13.79-2.9,2.91-5.23,6.28-6.84,10.06-1.71,4.02-2.66,8.29-3.38,12.58-.79,4.71-1.43,9.45-2.02,14.19-.6,4.8-1.2,9.61-1.51,14.44s-.14,9.38,1.13,13.9c1.2,4.26,3.22,8.26,5.54,12.01,4.16,6.73,9.34,12.84,15.28,18.06s12.55,9.55,19.7,12.82c8.1,3.7,16.74,5.97,25.56,7.13,18.5,2.43,37.19-.17,55.28-4.16,9.19-2.03,18.32-4.37,27.43-6.71,7.35-1.89,14.78-4.01,21.42-7.79,6.88-3.92,12.15-9.66,15.06-17.06,3.1-7.88,3.65-16.75,3.4-25.14-.27-8.98-1.79-17.94-4.51-26.5-1.36-4.27-2.97-8.54-4.97-12.55-1.77-3.54-4.36-6.61-7.27-9.26s-5.99-4.87-9.07-7.2c-.6-.46-1.55-.09-1.9.5-.42.71-.1,1.45.5,1.9,6.11,4.64,12.41,9.18,15.75,16.33,3.67,7.86,6.19,16.29,7.56,24.85,1.36,8.45,1.67,17.28.49,25.77-1.07,7.71-3.74,15.26-9.43,20.78-5.22,5.07-12.1,8.02-18.94,10.19-7.86,2.5-15.97,4.32-23.97,6.3-17.72,4.38-35.78,8.21-54.13,7.88-16.8-.3-33.45-4.29-47.58-13.63-6.4-4.24-12.16-9.43-17.07-15.33s-9.77-13.16-11.69-20.89c-1.1-4.45-1.03-9.08-.68-13.63s.95-9.42,1.55-14.11,1.19-9.01,1.98-13.48c.73-4.08,1.67-8.2,3.43-11.97,3.37-7.2,9.66-12.13,16.29-16.2,7.62-4.67,15.58-8.82,23.47-13.01,4.18-2.22,8.38-4.41,12.58-6.61s8-4.15,12.54-4.64,9.08,0,13.6,0,9.16-.26,13.74.03,8.79,1.23,12.91,2.99,7.7,3.94,11.38,6.19c8.08,4.94,16.15,9.89,24.23,14.84,4,2.45,8,4.9,12.01,7.35,1.53.94,2.93-1.47,1.4-2.4h0Z"/>
    </g>
    <path class="cls-8" d="M280.23,146.42c8.03,6.61,12.19,18.19,9.81,28.47-.65,2.74-1.86,5.43-3.43,7.75-1.72,2.57-3.52,5.26-5.93,7.33-1.05.89-2.55.28-2.23-1.17.29-.98.84-1.8,1.42-2.61,0,0,.37.12.37.12-.23.89-.57,1.93-.55,2.78-.01-.03-.09-.06-.12-.06-.03,0-.03,0-.02,0,.02-.01.06-.05.1-.08,1.7-2.35,2.83-5.08,4.16-7.67.66-1.33,1.3-2.79,1.77-4.19,2.03-6.3,1.41-13.15-.58-19.39-1.26-3.85-2.95-7.61-5.11-11.04,0,0,.32-.22.32-.22h0Z"/>
    <circle class="cls-1" cx="322.27" cy="160.08" r="5.95"/>
    <circle class="cls-1" cx="320.56" cy="181.7" r="5.95"/>
    <circle class="cls-4" cx="322.16" cy="160.11" r="1.57"/>
    <circle class="cls-4" cx="320.7" cy="181.7" r="1.57"/>
    <path class="cls-3" d="M317.48,158.05c-.29-.06-1.64-.42-1.7.65s.68.94.49,1.72-.87.59-.54,1.33,1.05.56.67,1.32-.54.78-.16,1.03,2-.28,1.76-.82-.92-1.49-.52-1.62.87-.59.48-1.27-.94-1.1-.42-1.2.2-1.09-.05-1.14Z"/>
    <path class="cls-3" d="M315.02,180.15c-.29-.06-1.64-.42-1.7.65s.68.94.49,1.72-.87.59-.54,1.33,1.05.56.67,1.32-.54.78-.16,1.03,2-.28,1.76-.82-.92-1.49-.52-1.62.87-.59.48-1.27-.94-1.1-.42-1.2.2-1.09-.05-1.14Z"/>
    <path class="cls-8" d="M330.8,177.54c-1.96,1.47-2.7,3.91-3.55,6.11-.65,1.89-1.27,3.81-2.07,5.65-.03.07-.11.34-.14.36-.04-.07-.05-.1-.16-.14-.1-.02-.16.02-.18.05.03,0,.05-.04.08-.07.1-.11.34-.44.44-.56-.04.31-.05.62-.2.91-.06.07-.11.12-.25.1-.13-.03-.16-.11-.19-.21-.05-.23-.03-.36-.04-.57.13-3.84,1.75-10.96,6.26-11.65h0Z"/>
    <path class="cls-8" d="M323.11,149.27c.43,2.42,2.28,4.17,3.86,5.93,1.39,1.43,2.83,2.85,4.12,4.39.04.06.25.25.26.29-.08,0-.11,0-.19.08-.06.08-.05.15-.03.18,0-.03-.01-.06-.03-.1-.05-.14-.24-.5-.3-.64.26.17.53.33.72.58.04.08.06.15-.02.27-.09.1-.17.1-.27.08-.23-.06-.34-.14-.52-.22-3.37-1.85-8.99-6.5-7.58-10.83h0Z"/>
  </g>
  <g>
    <g>
      <path class="cls-6" d="M625.73,337.88c-11.8-7.23-23.59-14.45-35.39-21.68-5.85-3.58-11.82-7.21-18.48-8.84-7.61-1.85-15.58-.95-23.41-1.1-4.82-.09-9.71-.57-14.4.55-3.46.83-6.65,2.49-9.81,4.14-10.55,5.52-21.1,11.03-31.45,16.9-7.78,4.41-15.76,9.33-20.34,17.01-3.39,5.68-4.6,12.37-5.59,18.91-1.01,6.66-1.87,13.34-2.56,20.04-.57,5.53-1.03,11.15.07,16.6,1,4.97,3.28,9.6,5.94,13.92,8.77,14.19,22.14,25.47,37.6,31.72,16.04,6.49,33.86,7.54,51.08,5.78,17.22-1.76,34.02-6.22,50.8-10.45,12.48-3.15,26-6.83,33.7-17.14,5.02-6.73,6.76-15.37,7.24-23.76.91-15.78-2.18-31.78-8.91-46.08-3.47-7.39-9.82-11.75-16.1-16.52"/>
      <path class="cls-8" d="M626.44,336.68l-25.28-15.48c-4.13-2.53-8.24-5.07-12.38-7.58-3.8-2.3-7.67-4.48-11.82-6.09s-8.88-2.45-13.51-2.66-9.52.08-14.28.02-9.43-.51-14.1.3-8.73,3.1-12.81,5.24c-8.56,4.48-17.11,8.96-25.55,13.64-7.16,3.97-14.66,7.93-20.5,13.79-2.9,2.91-5.23,6.28-6.84,10.06-1.71,4.02-2.66,8.29-3.38,12.58-.79,4.71-1.43,9.45-2.02,14.19-.6,4.8-1.2,9.61-1.51,14.44s-.14,9.38,1.13,13.9c1.2,4.26,3.22,8.26,5.54,12.01,4.16,6.73,9.34,12.84,15.28,18.06s12.55,9.55,19.7,12.82c8.1,3.7,16.74,5.97,25.56,7.13,18.5,2.43,37.19-.17,55.28-4.16,9.19-2.03,18.32-4.37,27.43-6.71,7.35-1.89,14.78-4.01,21.42-7.79,6.88-3.92,12.15-9.66,15.06-17.06,3.1-7.88,3.65-16.75,3.4-25.14-.27-8.98-1.79-17.94-4.51-26.5-1.36-4.27-2.97-8.54-4.97-12.55-1.77-3.54-4.36-6.61-7.27-9.26s-5.99-4.87-9.07-7.2c-.6-.46-1.55-.09-1.9.5-.42.71-.1,1.45.5,1.9,6.11,4.64,12.41,9.18,15.75,16.33,3.67,7.86,6.19,16.29,7.56,24.85,1.36,8.45,1.67,17.28.49,25.77-1.07,7.71-3.74,15.26-9.43,20.78-5.22,5.07-12.1,8.02-18.94,10.19-7.86,2.5-15.97,4.32-23.97,6.3-17.72,4.38-35.78,8.21-54.13,7.88-16.8-.3-33.45-4.29-47.58-13.63-6.4-4.24-12.16-9.43-17.07-15.33s-9.77-13.16-11.69-20.89c-1.1-4.45-1.03-9.08-.68-13.63s.95-9.42,1.55-14.11,1.19-9.01,1.98-13.48c.73-4.08,1.67-8.2,3.43-11.97,3.37-7.2,9.66-12.13,16.29-16.2,7.62-4.67,15.58-8.82,23.47-13.01,4.18-2.22,8.38-4.41,12.58-6.61s8-4.15,12.54-4.64,9.08,0,13.6,0,9.16-.26,13.74.03,8.79,1.23,12.91,2.99,7.7,3.94,11.38,6.19c8.08,4.94,16.15,9.89,24.23,14.84l12.01,7.35c1.53.94,2.93-1.47,1.4-2.4h0Z"/>
    </g>
    <path class="cls-8" d="M582.87,366.66c8.03,6.61,12.19,18.19,9.81,28.47-.65,2.74-1.86,5.43-3.43,7.75-1.72,2.57-3.52,5.26-5.93,7.33-1.05.89-2.55.28-2.23-1.17.29-.98.84-1.8,1.42-2.61,0,0,.37.12.37.12-.23.89-.57,1.93-.55,2.78-.01-.03-.09-.06-.12-.06-.03,0-.03,0-.02,0,.02-.01.06-.05.1-.08,1.7-2.35,2.83-5.08,4.16-7.67.66-1.33,1.3-2.79,1.77-4.19,2.03-6.3,1.41-13.15-.58-19.39-1.26-3.85-2.95-7.61-5.11-11.04,0,0,.32-.22.32-.22h0Z"/>
    <circle class="cls-1" cx="624.91" cy="380.33" r="5.95"/>
    <circle class="cls-1" cx="623.19" cy="401.95" r="5.95"/>
    <circle class="cls-4" cx="624.79" cy="380.36" r="1.57"/>
    <circle class="cls-4" cx="623.34" cy="401.95" r="1.57"/>
    <path class="cls-3" d="M620.12,378.29c-.29-.06-1.64-.42-1.7.65s.68.94.49,1.72-.87.59-.54,1.33,1.05.56.67,1.32-.54.78-.16,1.03,2-.28,1.76-.82-.92-1.49-.52-1.62.87-.59.48-1.27-.94-1.1-.42-1.2.2-1.09-.05-1.14Z"/>
    <path class="cls-3" d="M617.66,400.4c-.29-.06-1.64-.42-1.7.65s.68.94.49,1.72-.87.59-.54,1.33,1.05.56.67,1.32-.54.78-.16,1.03,2-.28,1.76-.82-.92-1.49-.52-1.62.87-.59.48-1.27-.94-1.1-.42-1.2.2-1.09-.05-1.14Z"/>
    <path class="cls-8" d="M633.43,397.79c-1.96,1.47-2.7,3.91-3.55,6.11-.65,1.89-1.27,3.81-2.07,5.65-.03.07-.11.34-.14.36-.04-.07-.05-.1-.16-.14-.1-.02-.16.02-.18.05.03,0,.05-.04.08-.07.1-.11.34-.44.44-.56-.04.31-.05.62-.2.91-.06.07-.11.12-.25.1-.13-.03-.16-.11-.19-.21-.05-.23-.03-.36-.04-.57.13-3.84,1.75-10.96,6.26-11.65h0Z"/>
    <path class="cls-8" d="M625.75,369.52c.43,2.42,2.28,4.17,3.86,5.93,1.39,1.43,2.83,2.85,4.12,4.39.04.06.25.25.26.29-.08,0-.11,0-.19.08-.06.08-.05.15-.03.18,0-.03-.01-.06-.03-.1-.05-.14-.24-.5-.3-.64.26.17.53.33.72.58.04.08.06.15-.02.27-.09.1-.17.1-.27.08-.23-.06-.34-.14-.52-.22-3.37-1.85-8.99-6.5-7.58-10.83h0Z"/>
  </g>
  <g>
    <g>
      <path class="cls-6" d="M560.64,244.04c-11.8-7.23-23.59-14.45-35.39-21.68-5.85-3.58-11.82-7.21-18.48-8.84-7.61-1.85-15.58-.95-23.41-1.1-4.82-.09-9.71-.57-14.4.55-3.46.83-6.65,2.49-9.81,4.14-10.55,5.52-21.1,11.03-31.45,16.9-7.78,4.41-15.76,9.33-20.34,17.01-3.39,5.68-4.6,12.37-5.59,18.91-1.01,6.66-1.87,13.34-2.56,20.04-.57,5.53-1.03,11.15.07,16.6,1,4.97,3.28,9.6,5.94,13.92,8.77,14.19,22.14,25.47,37.6,31.72,16.04,6.49,33.86,7.54,51.08,5.78,17.22-1.76,34.02-6.22,50.8-10.45,12.48-3.15,26-6.83,33.7-17.14,5.02-6.73,6.76-15.37,7.24-23.76.91-15.78-2.18-31.78-8.91-46.08-3.47-7.39-9.82-11.75-16.1-16.52"/>
      <path class="cls-8" d="M561.34,242.84l-25.28-15.48c-4.13-2.53-8.24-5.07-12.38-7.58-3.8-2.3-7.67-4.48-11.82-6.09s-8.88-2.45-13.51-2.66-9.52.08-14.28.02-9.43-.51-14.1.3-8.73,3.1-12.81,5.24c-8.56,4.48-17.11,8.96-25.55,13.64-7.16,3.97-14.66,7.93-20.5,13.79-2.9,2.91-5.23,6.28-6.84,10.06-1.71,4.02-2.66,8.29-3.38,12.58-.79,4.71-1.43,9.45-2.02,14.19-.6,4.8-1.2,9.61-1.51,14.44s-.14,9.38,1.13,13.9c1.2,4.26,3.22,8.26,5.54,12.01,4.16,6.73,9.34,12.84,15.28,18.06s12.55,9.55,19.7,12.82c8.1,3.7,16.74,5.97,25.56,7.13,18.5,2.43,37.19-.17,55.28-4.16,9.19-2.03,18.32-4.37,27.43-6.71,7.35-1.89,14.78-4.01,21.42-7.79,6.88-3.92,12.15-9.66,15.06-17.06,3.1-7.88,3.65-16.75,3.4-25.14-.27-8.98-1.79-17.94-4.51-26.5-1.36-4.27-2.97-8.54-4.97-12.55-1.77-3.54-4.36-6.61-7.27-9.26s-5.99-4.87-9.07-7.2c-.6-.46-1.55-.09-1.9.5-.42.71-.1,1.45.5,1.9,6.11,4.64,12.41,9.18,15.75,16.33,3.67,7.86,6.19,16.29,7.56,24.85,1.36,8.45,1.67,17.28.49,25.77-1.07,7.71-3.74,15.26-9.43,20.78-5.22,5.07-12.1,8.02-18.94,10.19-7.86,2.5-15.97,4.32-23.97,6.3-17.72,4.38-35.78,8.21-54.13,7.88-16.8-.3-33.45-4.29-47.58-13.63-6.4-4.24-12.16-9.43-17.07-15.33s-9.77-13.16-11.69-20.89c-1.1-4.45-1.03-9.08-.68-13.63s.95-9.42,1.55-14.11,1.19-9.01,1.98-13.48c.73-4.08,1.67-8.2,3.43-11.97,3.37-7.2,9.66-12.13,16.29-16.2,7.62-4.67,15.58-8.82,23.47-13.01,4.18-2.22,8.38-4.41,12.58-6.61s8-4.15,12.54-4.64,9.08,0,13.6,0,9.16-.26,13.74.03,8.79,1.23,12.91,2.99,7.7,3.94,11.38,6.19c8.08,4.94,16.15,9.89,24.23,14.84,4,2.45,8,4.9,12.01,7.35,1.53.94,2.93-1.47,1.4-2.4h0Z"/>
    </g>
    <path class="cls-8" d="M517.77,272.82c8.03,6.61,12.19,18.19,9.81,28.47-.65,2.74-1.86,5.43-3.43,7.75-1.72,2.57-3.52,5.26-5.93,7.33-1.05.89-2.55.28-2.23-1.17.29-.98.84-1.8,1.42-2.61,0,0,.37.12.37.12-.23.89-.57,1.93-.55,2.78-.01-.03-.09-.06-.12-.06-.03,0-.03,0-.02,0,.02-.01.06-.05.1-.08,1.7-2.35,2.83-5.08,4.16-7.67.66-1.33,1.3-2.79,1.77-4.19,2.03-6.3,1.41-13.15-.58-19.39-1.26-3.85-2.95-7.61-5.11-11.04,0,0,.32-.22.32-.22h0Z"/>
    <circle class="cls-1" cx="559.81" cy="286.49" r="5.95"/>
    <circle class="cls-1" cx="558.1" cy="308.11" r="5.95"/>
    <circle class="cls-4" cx="559.69" cy="286.52" r="1.57"/>
    <circle class="cls-4" cx="558.24" cy="308.11" r="1.57"/>
    <path class="cls-3" d="M555.02,284.45c-.29-.06-1.64-.42-1.7.65s.68.94.49,1.72-.87.59-.54,1.33,1.05.56.67,1.32-.54.78-.16,1.03,2-.28,1.76-.82-.92-1.49-.52-1.62.87-.59.48-1.27-.94-1.1-.42-1.2.2-1.09-.05-1.14Z"/>
    <path class="cls-3" d="M552.56,306.56c-.29-.06-1.64-.42-1.7.65s.68.94.49,1.72-.87.59-.54,1.33,1.05.56.67,1.32-.54.78-.16,1.03,2-.28,1.76-.82-.92-1.49-.52-1.62.87-.59.48-1.27-.94-1.1-.42-1.2.2-1.09-.05-1.14Z"/>
    <path class="cls-8" d="M568.33,303.95c-1.96,1.47-2.7,3.91-3.55,6.11-.65,1.89-1.27,3.81-2.07,5.65-.03.07-.11.34-.14.36-.04-.07-.05-.1-.16-.14-.1-.02-.16.02-.18.05.03,0,.05-.04.08-.07.1-.11.34-.44.44-.56-.04.31-.05.62-.2.91-.06.07-.11.12-.25.1-.13-.03-.16-.11-.19-.21-.05-.23-.03-.36-.04-.57.13-3.84,1.75-10.96,6.26-11.65h0Z"/>
    <path class="cls-8" d="M560.65,275.68c.43,2.42,2.28,4.17,3.86,5.93,1.39,1.43,2.83,2.85,4.12,4.39.04.06.25.25.26.29-.08,0-.11,0-.19.08-.06.08-.05.15-.03.18,0-.03-.01-.06-.03-.1-.05-.14-.24-.5-.3-.64.26.17.53.33.72.58.04.08.06.15-.02.27-.09.1-.17.1-.27.08-.23-.06-.34-.14-.52-.22-3.37-1.85-8.99-6.5-7.58-10.83h0Z"/>
  </g>
  <g>
    <g>
      <path class="cls-6" d="M500.22,140.23c-11.8-7.23-23.59-14.45-35.39-21.68-5.85-3.58-11.82-7.21-18.48-8.84-7.61-1.85-15.58-.95-23.41-1.1-4.82-.09-9.71-.57-14.4.55-3.46.83-6.65,2.49-9.81,4.14-10.55,5.52-21.1,11.03-31.45,16.9-7.78,4.41-15.76,9.33-20.34,17.01-3.39,5.68-4.6,12.37-5.59,18.91-1.01,6.66-1.87,13.34-2.56,20.04-.57,5.53-1.03,11.15.07,16.6,1,4.97,3.28,9.6,5.94,13.92,8.77,14.19,22.14,25.47,37.6,31.72,16.04,6.49,33.86,7.54,51.08,5.78,17.22-1.76,34.02-6.22,50.8-10.45,12.48-3.15,26-6.83,33.7-17.14,5.02-6.73,6.76-15.37,7.24-23.76.91-15.78-2.18-31.78-8.91-46.08-3.47-7.39-9.82-11.75-16.1-16.52"/>
      <path class="cls-8" d="M500.92,139.03l-25.28-15.48c-4.13-2.53-8.24-5.07-12.38-7.58-3.8-2.3-7.67-4.48-11.82-6.09s-8.88-2.45-13.51-2.66-9.52.08-14.28.02-9.43-.51-14.1.3-8.73,3.1-12.81,5.24c-8.56,4.48-17.11,8.96-25.55,13.64-7.16,3.97-14.66,7.93-20.5,13.79-2.9,2.91-5.23,6.28-6.84,10.06-1.71,4.02-2.66,8.29-3.38,12.58-.79,4.71-1.43,9.45-2.02,14.19-.6,4.8-1.2,9.61-1.51,14.44s-.14,9.38,1.13,13.9c1.2,4.26,3.22,8.26,5.54,12.01,4.16,6.73,9.34,12.84,15.28,18.06s12.55,9.55,19.7,12.82c8.1,3.7,16.74,5.97,25.56,7.13,18.5,2.43,37.19-.17,55.28-4.16,9.19-2.03,18.32-4.37,27.43-6.71,7.35-1.89,14.78-4.01,21.42-7.79,6.88-3.92,12.15-9.66,15.06-17.06,3.1-7.88,3.65-16.75,3.4-25.14-.27-8.98-1.79-17.94-4.51-26.5-1.36-4.27-2.97-8.54-4.97-12.55-1.77-3.54-4.36-6.61-7.27-9.26s-5.99-4.87-9.07-7.2c-.6-.46-1.55-.09-1.9.5-.42.71-.1,1.45.5,1.9,6.11,4.64,12.41,9.18,15.75,16.33,3.67,7.86,6.19,16.29,7.56,24.85,1.36,8.45,1.67,17.28.49,25.77-1.07,7.71-3.74,15.26-9.43,20.78-5.22,5.07-12.1,8.02-18.94,10.19-7.86,2.5-15.97,4.32-23.97,6.3-17.72,4.38-35.78,8.21-54.13,7.88-16.8-.3-33.45-4.29-47.58-13.63-6.4-4.24-12.16-9.43-17.07-15.33s-9.77-13.16-11.69-20.89c-1.1-4.45-1.03-9.08-.68-13.63s.95-9.42,1.55-14.11,1.19-9.01,1.98-13.48c.73-4.08,1.67-8.2,3.43-11.97,3.37-7.2,9.66-12.13,16.29-16.2,7.62-4.67,15.58-8.82,23.47-13.01,4.18-2.22,8.38-4.41,12.58-6.61s8-4.15,12.54-4.64,9.08,0,13.6,0,9.16-.26,13.74.03,8.79,1.23,12.91,2.99,7.7,3.94,11.38,6.19c8.08,4.94,16.15,9.89,24.23,14.84,4,2.45,8,4.9,12.01,7.35,1.53.94,2.93-1.47,1.4-2.4h0Z"/>
    </g>
    <path class="cls-8" d="M457.35,169.01c8.03,6.61,12.19,18.19,9.81,28.47-.65,2.74-1.86,5.43-3.43,7.75-1.72,2.57-3.52,5.26-5.93,7.33-1.05.89-2.55.28-2.23-1.17.29-.98.84-1.8,1.42-2.61,0,0,.37.12.37.12-.23.89-.57,1.93-.55,2.78-.01-.03-.09-.06-.12-.06-.03,0-.03,0-.02,0,.02-.01.06-.05.1-.08,1.7-2.35,2.83-5.08,4.16-7.67.66-1.33,1.3-2.79,1.77-4.19,2.03-6.3,1.41-13.15-.58-19.39-1.26-3.85-2.95-7.61-5.11-11.04,0,0,.32-.22.32-.22h0Z"/>
    <circle class="cls-1" cx="499.39" cy="182.67" r="5.95"/>
    <circle class="cls-1" cx="497.68" cy="204.3" r="5.95"/>
    <circle class="cls-4" cx="499.28" cy="182.71" r="1.57"/>
    <circle class="cls-4" cx="497.83" cy="204.3" r="1.57"/>
    <path class="cls-3" d="M494.6,180.64c-.29-.06-1.64-.42-1.7.65s.68.94.49,1.72-.87.59-.54,1.33,1.05.56.67,1.32-.54.78-.16,1.03,2-.28,1.76-.82-.92-1.49-.52-1.62.87-.59.48-1.27-.94-1.1-.42-1.2.2-1.09-.05-1.14Z"/>
    <path class="cls-3" d="M492.14,202.75c-.29-.06-1.64-.42-1.7.65s.68.94.49,1.72-.87.59-.54,1.33,1.05.56.67,1.32-.54.78-.16,1.03,2-.28,1.76-.82-.92-1.49-.52-1.62.87-.59.48-1.27-.94-1.1-.42-1.2.2-1.09-.05-1.14Z"/>
    <path class="cls-8" d="M507.92,200.14c-1.96,1.47-2.7,3.91-3.55,6.11-.65,1.89-1.27,3.81-2.07,5.65-.03.07-.11.34-.14.36-.04-.07-.05-.1-.16-.14-.1-.02-.16.02-.18.05.03,0,.05-.04.08-.07.1-.11.34-.44.44-.56-.04.31-.05.62-.2.91-.06.07-.11.12-.25.1-.13-.03-.16-.11-.19-.21-.05-.23-.03-.36-.04-.57.13-3.84,1.75-10.96,6.26-11.65h0Z"/>
    <path class="cls-8" d="M500.23,171.87c.43,2.42,2.28,4.17,3.86,5.93,1.39,1.43,2.83,2.85,4.12,4.39.04.06.25.25.26.29-.08,0-.11,0-.19.08-.06.08-.05.15-.03.18,0-.03-.01-.06-.03-.1-.05-.14-.24-.5-.3-.64.26.17.53.33.72.58.04.08.06.15-.02.27-.09.1-.17.1-.27.08-.23-.06-.34-.14-.52-.22-3.37-1.85-8.99-6.5-7.58-10.83h0Z"/>
  </g>
  <g>
    <g>
      <path class="cls-6" d="M419.1,33.17c-11.8-7.23-23.59-14.45-35.39-21.68-5.85-3.58-11.82-7.21-18.48-8.84-7.61-1.85-15.58-.95-23.41-1.1-4.82-.09-9.71-.57-14.4.55-3.46.83-6.65,2.49-9.81,4.14-10.55,5.52-21.1,11.03-31.45,16.9-7.78,4.41-15.76,9.33-20.34,17.01-3.39,5.68-4.6,12.37-5.59,18.91-1.01,6.66-1.87,13.34-2.56,20.04-.57,5.53-1.03,11.15.07,16.6,1,4.97,3.28,9.6,5.94,13.92,8.77,14.19,22.14,25.47,37.6,31.72,16.04,6.49,33.86,7.54,51.08,5.78,17.22-1.76,34.02-6.22,50.8-10.45,12.48-3.15,26-6.83,33.7-17.14,5.02-6.73,6.76-15.37,7.24-23.76.91-15.78-2.18-31.78-8.91-46.08-3.47-7.39-9.82-11.75-16.1-16.52"/>
      <path class="cls-8" d="M419.8,31.97l-25.28-15.48c-4.13-2.53-8.24-5.07-12.38-7.58-3.8-2.3-7.67-4.48-11.82-6.09s-8.88-2.45-13.51-2.66-9.52.08-14.28.02-9.43-.51-14.1.3-8.73,3.1-12.81,5.24c-8.56,4.48-17.11,8.96-25.55,13.64-7.16,3.97-14.66,7.93-20.5,13.79-2.9,2.91-5.23,6.28-6.84,10.06-1.71,4.02-2.66,8.29-3.38,12.58-.79,4.71-1.43,9.45-2.02,14.19-.6,4.8-1.2,9.61-1.51,14.44s-.14,9.38,1.13,13.9c1.2,4.26,3.22,8.26,5.54,12.01,4.16,6.73,9.34,12.84,15.28,18.06s12.55,9.55,19.7,12.82c8.1,3.7,16.74,5.97,25.56,7.13,18.5,2.43,37.19-.17,55.28-4.16,9.19-2.03,18.32-4.37,27.43-6.71,7.35-1.89,14.78-4.01,21.42-7.79,6.88-3.92,12.15-9.66,15.06-17.06,3.1-7.88,3.65-16.75,3.4-25.14-.27-8.98-1.79-17.94-4.51-26.5-1.36-4.27-2.97-8.54-4.97-12.55-1.77-3.54-4.36-6.61-7.27-9.26s-5.99-4.87-9.07-7.2c-.6-.46-1.55-.09-1.9.5-.42.71-.1,1.45.5,1.9,6.11,4.64,12.41,9.18,15.75,16.33,3.67,7.86,6.19,16.29,7.56,24.85,1.36,8.45,1.67,17.28.49,25.77-1.07,7.71-3.74,15.26-9.43,20.78-5.22,5.07-12.1,8.02-18.94,10.19-7.86,2.5-15.97,4.32-23.97,6.3-17.72,4.38-35.78,8.21-54.13,7.88-16.8-.3-33.45-4.29-47.58-13.63-6.4-4.24-12.16-9.43-17.07-15.33s-9.77-13.16-11.69-20.89c-1.1-4.45-1.03-9.08-.68-13.63s.95-9.42,1.55-14.11,1.19-9.01,1.98-13.48c.73-4.08,1.67-8.2,3.43-11.97,3.37-7.2,9.66-12.13,16.29-16.2,7.62-4.67,15.58-8.82,23.47-13.01,4.18-2.22,8.38-4.41,12.58-6.61s8-4.15,12.54-4.64,9.08,0,13.6,0,9.16-.26,13.74.03,8.79,1.23,12.91,2.99,7.7,3.94,11.38,6.19c8.08,4.94,16.15,9.89,24.23,14.84,4,2.45,8,4.9,12.01,7.35,1.53.94,2.93-1.47,1.4-2.4h0Z"/>
    </g>
    <path class="cls-8" d="M376.24,61.95c8.03,6.61,12.19,18.19,9.81,28.47-.65,2.74-1.86,5.43-3.43,7.75-1.72,2.57-3.52,5.26-5.93,7.33-1.05.89-2.55.28-2.23-1.17.29-.98.84-1.8,1.42-2.61,0,0,.37.12.37.12-.23.89-.57,1.93-.55,2.78-.01-.03-.09-.06-.12-.06-.03,0-.03,0-.02,0,.02-.01.06-.05.1-.08,1.7-2.35,2.83-5.08,4.16-7.67.66-1.33,1.3-2.79,1.77-4.19,2.03-6.3,1.41-13.15-.58-19.39-1.26-3.85-2.95-7.61-5.11-11.04,0,0,.32-.22.32-.22h0Z"/>
    <circle class="cls-1" cx="418.28" cy="75.61" r="5.95"/>
    <circle class="cls-1" cx="416.56" cy="97.23" r="5.95"/>
    <circle class="cls-4" cx="418.16" cy="75.65" r="1.57"/>
    <circle class="cls-4" cx="416.71" cy="97.23" r="1.57"/>
    <path class="cls-3" d="M413.48,73.58c-.29-.06-1.64-.42-1.7.65s.68.94.49,1.72-.87.59-.54,1.33,1.05.56.67,1.32-.54.78-.16,1.03,2-.28,1.76-.82-.92-1.49-.52-1.62.87-.59.48-1.27-.94-1.1-.42-1.2.2-1.09-.05-1.14Z"/>
    <path class="cls-3" d="M411.03,95.68c-.29-.06-1.64-.42-1.7.65s.68.94.49,1.72-.87.59-.54,1.33,1.05.56.67,1.32-.54.78-.16,1.03,2-.28,1.76-.82-.92-1.49-.52-1.62.87-.59.48-1.27-.94-1.1-.42-1.2.2-1.09-.05-1.14Z"/>
    <path class="cls-8" d="M426.8,93.07c-1.96,1.47-2.7,3.91-3.55,6.11-.65,1.89-1.27,3.81-2.07,5.65-.03.07-.11.34-.14.36-.04-.07-.05-.1-.16-.14-.1-.02-.16.02-.18.05.03,0,.05-.04.08-.07.1-.11.34-.44.44-.56-.04.31-.05.62-.2.91-.06.07-.11.12-.25.1-.13-.03-.16-.11-.19-.21-.05-.23-.03-.36-.04-.57.13-3.84,1.75-10.96,6.26-11.65h0Z"/>
    <path class="cls-8" d="M419.11,64.8c.43,2.42,2.28,4.17,3.86,5.93,1.39,1.43,2.83,2.85,4.12,4.39.04.06.25.25.26.29-.08,0-.11,0-.19.08-.06.08-.05.15-.03.18,0-.03-.01-.06-.03-.1-.05-.14-.24-.5-.3-.64.26.17.53.33.72.58.04.08.06.15-.02.27-.09.1-.17.1-.27.08-.23-.06-.34-.14-.52-.22-3.37-1.85-8.99-6.5-7.58-10.83h0Z"/>
  </g>
  <g>
    <g>
      <path class="cls-6" d="M299.35,329.73c-11.8-7.23-23.59-14.45-35.39-21.68-5.85-3.58-11.82-7.21-18.48-8.84-7.61-1.85-15.58-.95-23.41-1.1-4.82-.09-9.71-.57-14.4.55-3.46.83-6.65,2.49-9.81,4.14-10.55,5.52-21.1,11.03-31.45,16.9-7.78,4.41-15.76,9.33-20.34,17.01-3.39,5.68-4.6,12.37-5.59,18.91-1.01,6.66-1.87,13.34-2.56,20.04-.57,5.53-1.03,11.15.07,16.6,1,4.97,3.28,9.6,5.94,13.92,8.77,14.19,22.14,25.47,37.6,31.72,16.04,6.49,33.86,7.54,51.08,5.78,17.22-1.76,34.02-6.22,50.8-10.45,12.48-3.15,26-6.83,33.7-17.14,5.02-6.73,6.76-15.37,7.24-23.76.91-15.78-2.18-31.78-8.91-46.08-3.47-7.39-9.82-11.75-16.1-16.52"/>
      <path class="cls-8" d="M300.06,328.53c-8.43-5.16-16.85-10.32-25.28-15.48-4.13-2.53-8.24-5.07-12.38-7.58-3.8-2.3-7.67-4.48-11.82-6.09-4.33-1.68-8.88-2.45-13.51-2.66s-9.52.08-14.28.02-9.43-.51-14.1.3-8.73,3.1-12.81,5.24c-8.56,4.48-17.11,8.96-25.55,13.64-7.16,3.97-14.66,7.93-20.5,13.79-2.9,2.91-5.23,6.28-6.84,10.06-1.71,4.02-2.66,8.29-3.38,12.58-.79,4.71-1.43,9.45-2.02,14.19s-1.2,9.61-1.51,14.44-.14,9.38,1.13,13.9c1.2,4.26,3.22,8.26,5.54,12.01,4.16,6.73,9.34,12.84,15.28,18.06s12.55,9.55,19.7,12.82c8.1,3.7,16.74,5.97,25.56,7.13,18.5,2.43,37.19-.17,55.28-4.16,9.19-2.03,18.32-4.37,27.43-6.71,7.35-1.89,14.78-4.01,21.42-7.79,6.88-3.92,12.15-9.66,15.06-17.06,3.1-7.88,3.65-16.75,3.4-25.14-.27-8.98-1.79-17.94-4.51-26.5-1.36-4.27-2.97-8.54-4.97-12.55-1.77-3.54-4.36-6.61-7.27-9.26-2.85-2.6-5.99-4.87-9.07-7.2-.6-.46-1.55-.09-1.9.5-.42.71-.1,1.45.5,1.9,6.11,4.64,12.41,9.18,15.75,16.33,3.67,7.86,6.19,16.29,7.56,24.85,1.36,8.45,1.67,17.28.49,25.77-1.07,7.71-3.74,15.26-9.43,20.78-5.22,5.07-12.1,8.02-18.94,10.19-7.86,2.5-15.97,4.32-23.97,6.3-17.72,4.38-35.78,8.21-54.13,7.88-16.8-.3-33.45-4.29-47.58-13.63-6.4-4.24-12.16-9.43-17.07-15.33s-9.77-13.16-11.69-20.89c-1.1-4.45-1.03-9.08-.68-13.63s.95-9.42,1.55-14.11,1.19-9.01,1.98-13.48c.73-4.08,1.67-8.2,3.43-11.97,3.37-7.2,9.66-12.13,16.29-16.2,7.62-4.67,15.58-8.82,23.47-13.01,4.18-2.22,8.38-4.41,12.58-6.61s8-4.15,12.54-4.64,9.08,0,13.6,0,9.16-.26,13.74.03,8.79,1.23,12.91,2.99,7.7,3.94,11.38,6.19c8.08,4.94,16.15,9.89,24.23,14.84l12.01,7.35c1.53.94,2.93-1.47,1.4-2.4h0Z"/>
    </g>
    <path class="cls-8" d="M256.49,358.51c8.03,6.61,12.19,18.19,9.81,28.47-.65,2.74-1.86,5.43-3.43,7.75-1.72,2.57-3.52,5.26-5.93,7.33-1.05.89-2.55.28-2.23-1.17.29-.98.84-1.8,1.42-2.61,0,0,.37.12.37.12-.23.89-.57,1.93-.55,2.78-.01-.03-.09-.06-.12-.06-.03,0-.03,0-.02,0,.02-.01.06-.05.1-.08,1.7-2.35,2.83-5.08,4.16-7.67.66-1.33,1.3-2.79,1.77-4.19,2.03-6.3,1.41-13.15-.58-19.39-1.26-3.85-2.95-7.61-5.11-11.04,0,0,.32-.22.32-.22h0Z"/>
    <circle class="cls-1" cx="298.53" cy="372.17" r="5.95"/>
    <circle class="cls-1" cx="296.81" cy="393.79" r="5.95"/>
    <circle class="cls-4" cx="298.41" cy="372.21" r="1.57"/>
    <circle class="cls-4" cx="296.96" cy="393.79" r="1.57"/>
    <path class="cls-3" d="M293.74,370.14c-.29-.06-1.64-.42-1.7.65s.68.94.49,1.72-.87.59-.54,1.33,1.05.56.67,1.32-.54.78-.16,1.03,2-.28,1.76-.82-.92-1.49-.52-1.62.87-.59.48-1.27-.94-1.1-.42-1.2.2-1.09-.05-1.14Z"/>
    <path class="cls-3" d="M291.28,392.24c-.29-.06-1.64-.42-1.7.65s.68.94.49,1.72-.87.59-.54,1.33,1.05.56.67,1.32-.54.78-.16,1.03,2-.28,1.76-.82-.92-1.49-.52-1.62.87-.59.48-1.27-.94-1.1-.42-1.2.2-1.09-.05-1.14Z"/>
    <path class="cls-8" d="M307.05,389.64c-1.96,1.47-2.7,3.91-3.55,6.11-.65,1.89-1.27,3.81-2.07,5.65-.03.07-.11.34-.14.36-.04-.07-.05-.1-.16-.14-.1-.02-.16.02-.18.05.03,0,.05-.04.08-.07.1-.11.34-.44.44-.56-.04.31-.05.62-.2.91-.06.07-.11.12-.25.1-.13-.03-.16-.11-.19-.21-.05-.23-.03-.36-.04-.57.13-3.84,1.75-10.96,6.26-11.65h0Z"/>
    <path class="cls-8" d="M299.37,361.36c.43,2.42,2.28,4.17,3.86,5.93,1.39,1.43,2.83,2.85,4.12,4.39.04.06.25.25.26.29-.08,0-.11,0-.19.08-.06.08-.05.15-.03.18,0-.03-.01-.06-.03-.1-.05-.14-.24-.5-.3-.64.26.17.53.33.72.58.04.08.06.15-.02.27-.09.1-.17.1-.27.08-.23-.06-.34-.14-.52-.22-3.37-1.85-8.99-6.5-7.58-10.83h0Z"/>
  </g>
  <path class="cls-5" d="M289.59,395.22c-2.76,4.37-4.66,10.09-2.18,14.95,1.59,3.12,4.59,5.68,5.48,9.13.37,1.45.27,3.05.29,4.54.02,1.59.02,3.18,0,4.77-.01,2.28-.04,4.57-.09,6.85-.03,1.61,2.47,1.61,2.5,0,.1-4.76.2-9.53.02-14.29-.14-3.61-2-6.19-4.03-9.03-1.03-1.45-2.17-3.04-2.67-4.76-.43-1.49-.24-3.09.12-4.57.54-2.22,1.49-4.4,2.71-6.33.86-1.36-1.3-2.62-2.16-1.26h0Z"/>
  <path class="cls-5" d="M292.31,372.64c-1.46-.4-3.18-.25-4.51.46-3.06,1.64-2.81,5.18-3.77,8.06-.67,2-2.65,3.11-3.33,5.1-.95,2.77-.17,6.16.48,8.92.14.6.3,1.2.46,1.8.06.21.12.41.18.62.1.36.07.18.08.32.05.93-.29,1.93-.53,2.82-.8,2.98-1.83,5.89-2.72,8.84-.79,2.66-1.25,5.25-1.2,8.04s.32,6.51,2.21,8.87c.74.92,1.43,1.32,1.95,2.44.61,1.31.99,2.74,1.34,4.13.5,2,.9,4.04,1.18,6.09.22,1.59,2.63.91,2.41-.66-.53-3.81-1.17-8.24-3.17-11.58-.5-.84-1.28-1.31-1.85-2.07-.79-1.05-1.07-2.51-1.29-3.77-.46-2.7-.49-5.67.14-8.34s1.62-5.45,2.47-8.16c.65-2.07,1.64-4.49,1.55-6.7-.04-.9-.42-1.81-.64-2.68-.35-1.4-.66-2.81-.82-4.25-.14-1.26-.31-2.79.18-4,.34-.84,1.09-1.49,1.67-2.17.76-.88,1.29-1.83,1.66-2.94.58-1.74.47-3.88,1.45-5.46.52-.85,1.34-1.32,2.32-1.42.69-.07.92-.04,1.44.1,1.55.43,2.22-1.98.66-2.41h0Z"/>
  <path class="cls-7" d="M441.24,373.87c-2.97.89-6.79,2.9-7.33,6.27-.46,2.85.97,6.07-.2,8.84-.37.88-1.21,1.45-1.81,2.17s-1.12,1.54-1.46,2.45c-.87,2.33-.57,4.97-.18,7.36.44,2.69,1.22,5.32,2,7.94.82,2.74,1.7,5.47,2.4,8.24.41,1.61,1.04,3.62.49,5.16-.46,1.3-1.26,2.48-1.47,3.86s.21,2.73,1.03,3.89c1.18,1.68,2.65,3.13,3.82,4.83.45.65.88,1.31,1.26,2,.12.22.24.45.35.68.04.09.1.53.1.28.04,1.61,2.54,1.61,2.5,0-.02-.89-.5-1.72-.93-2.47-.74-1.29-1.63-2.5-2.54-3.67s-2.4-2.43-2.97-3.87c-.44-1.08.06-2.1.51-3.08.88-1.94,1.2-3.34.87-5.45-.37-2.36-1.08-4.68-1.76-6.96-.77-2.59-1.59-5.17-2.29-7.78s-1.36-5.35-1.22-8.07c.09-1.73.74-3.08,1.94-4.3,1.89-1.9,2.33-4.06,2.25-6.7-.05-1.59-.46-3.35-.23-4.92.14-.97.9-1.75,1.64-2.33,1.13-.88,2.53-1.54,3.9-1.95,1.54-.46.88-2.87-.66-2.41h0Z"/>
  <path class="cls-7" d="M438.24,396.3c-1.42,1.8-2.37,4.19-2.26,6.51.21,4.28,4.2,7.09,6.84,10.04.75.83,2.12,2.04,2.37,3.19.02.09-.02.16-.23.53-.25.45-.53.9-.65,1.41-.38,1.57.66,2.9,1.81,3.84,1.25,1.02,2.14,2.1,2.9,3.53,1.44,2.69,2.72,6.13,2.81,9.23.04,1.61,2.54,1.61,2.5,0-.07-2.61-.94-5.32-1.9-7.72-.59-1.5-1.27-2.99-2.19-4.32-.37-.54-.78-1.07-1.24-1.54-.61-.63-1.42-1.06-1.97-1.74-.66-.82.15-1.37.46-2.18.4-1.04.1-1.97-.45-2.9-1.91-3.17-5-5.47-7.32-8.3-1.32-1.61-1.5-3.58-.87-5.51.2-.6.48-1.17.8-1.72.09-.15.69-.99.36-.57.99-1.25-.77-3.03-1.77-1.77h0Z"/>
  <path class="cls-7" d="M617.73,380.92c-6.04,3.02-13.96,9.61-11.26,17.2,1.26,3.54,2.01,7.09,2.16,10.84.11,2.89-.11,5.79.08,8.68.21,3.22,1.18,6.3,2.3,9.3.93,2.5,2.12,4.96,2.7,7.57.95,4.24,1.51,8.58,2.13,12.88.23,1.59,2.64.91,2.41-.66-.52-3.68-1.07-7.36-1.75-11.01-.98-5.28-3.71-9.99-4.87-15.22-.58-2.64-.48-5.33-.46-8.02.03-3.2-.11-6.39-.72-9.53-.37-1.88-.93-3.69-1.57-5.49-.36-1.02-.56-2.04-.44-3.12.22-2.05,1.42-3.91,2.77-5.41,2.15-2.4,4.9-4.41,7.79-5.85,1.44-.72.17-2.88-1.26-2.16h0Z"/>
  <path class="cls-7" d="M615.93,403.02c-1.52.74-2.78,2.28-3.08,3.95-.62,3.41,2.36,6.37,4.28,8.83,1.06,1.36,2.19,2.83,2.66,4.52s-.21,3.47-.03,5.25c.38,3.75,2.91,6.82,4.54,10.1,1.5,3.02,2.71,6.62,2.9,10.02.09,1.6,2.59,1.61,2.5,0-.14-2.45-.79-4.96-1.58-7.27-.68-2-1.57-3.92-2.6-5.77-.87-1.56-1.88-3.08-2.59-4.73s-.79-3.2-.54-4.96c.23-1.57-.02-3.08-.65-4.53-1.36-3.12-4-5.42-5.72-8.32-1.12-1.89-.91-3.91,1.17-4.92,1.45-.7.18-2.86-1.26-2.16h0Z"/>
  <path class="cls-5" d="M194.75,268.64c-1.96.39-3.81,1.8-4.83,3.49-2.16,3.58-.51,7.59-.11,11.39.1.97-.34,2.06-.78,3.09-.9,2.12-2.34,3.9-3.65,5.77-.83,1.19-2.04,2.92-1.15,4.39.28.47.95.75,1.13.99.17.22.26.99.29,1.39.2,2.74-.38,5.62-1.02,8.28-.38,1.56,2.03,2.23,2.41.66.54-2.26.94-4.6,1.09-6.92.09-1.35.12-2.85-.38-4.13-.22-.56-.55-1.09-1.07-1.43-.21-.14-.31-.31-.29-.09,0,.08.23-.44.24-.47.88-1.79,2.34-3.29,3.4-4.98.91-1.46,1.75-3.18,2.13-4.87.25-1.11.1-2.15-.11-3.26-.39-2.03-.95-4.22-.72-6.29.25-2.3,1.96-4.18,4.08-4.6,1.58-.31.91-2.72-.66-2.41h0Z"/>
  <path class="cls-5" d="M196.99,247.82c-1.88.19-3.73.7-5.45,1.46-3.09,1.36-5.1,3.62-5.68,6.97-.25,1.43-.39,2.9-.75,4.3-.4,1.58-1.19,3.04-1.87,4.51-.89,1.93-1.63,3.92-2.03,6.01-.2,1.08-.17,2.31-.51,3.32.04-.11-.07.15-.19.34-.15.24-.31.49-.47.73-.48.72-.98,1.43-1.49,2.14-.76,1.07-1.56,2.12-2.3,3.21-.91,1.33,1.25,2.58,2.16,1.26,1.37-2,2.9-3.88,4.17-5.94.5-.8.65-1.56.76-2.48.19-1.51.45-2.98.91-4.43.99-3.11,2.92-5.87,3.49-9.12.29-1.63.35-3.42.92-4.97.47-1.26,1.48-2.22,2.6-2.91,1.21-.75,2.56-1.22,3.94-1.56.46-.11.93-.2,1.4-.29.1-.02.66-.12.22-.04.05,0,.1-.01.16-.02,1.59-.16,1.6-2.66,0-2.5h0Z"/>
  <path class="cls-5" d="M315.93,159.22c-3.52,1.38-7.03,3-10.24,5.02-1.77,1.11-3.86,2.48-4.84,4.4s0,3.9.78,5.69c.99,2.25.75,4.05-.52,6.18-2.01,3.38-4.95,6.12-7.12,9.39-1.55,2.32-2.31,4.85-2.36,7.64-.03,1.75.2,3.48.04,5.23s-.6,3.53-1.1,5.23c-.95,3.24-2.44,6.29-3.36,9.53-.33,1.17-.27,2.1.31,3.19.42.78,2.63,3.01,2.1,3.91-.82,1.39,1.34,2.65,2.16,1.26.75-1.27.35-2.62-.36-3.81-.56-.95-1.84-2.17-1.96-3.2-.05-.42.51-1.76.75-2.42.52-1.39,1.06-2.77,1.57-4.16,1.19-3.29,2.24-6.7,2.44-10.22.17-2.96-.5-5.89.7-8.73s3.72-5.47,5.71-7.95,4.26-5.27,4.2-8.55c-.04-2.03-1.18-3.64-1.73-5.53-.25-.87-.3-1.17.14-1.83.51-.76,1.27-1.38,1.99-1.93,3.36-2.54,7.55-4.44,11.35-5.93,1.48-.58.84-3-.66-2.41h0Z"/>
  <path class="cls-5" d="M312.64,182.77c-2.98,1.85-6.13,4.92-6.65,8.54-.46,3.22,1.74,5.49,3.02,8.22,1.11,2.37,1.35,4.81,1.58,7.37.17,1.9.45,3.79.4,5.71-.03,1.41-.16,3.37-1.4,4.31s-.02,3.13,1.26,2.16c2.44-1.85,2.74-4.97,2.63-7.84s-.36-5.76-.85-8.53c-.55-3.14-2.21-5.6-3.68-8.36-1.18-2.21-.16-4.53,1.35-6.29,1.03-1.2,2.26-2.3,3.61-3.14s.11-3.01-1.26-2.16h0Z"/>
  <path class="cls-5" d="M376.57,267.19c-1.06-.21-2.15.14-3.1.58-2.69,1.24-4.69,3.68-6.43,5.98s-3.17,4.52-4.95,6.6c-1.57,1.84-3.68,3.16-5.1,5.13-2.11,2.93-2.84,6.78-5.82,9.06-1.26.96-.02,3.14,1.26,2.16,2.54-1.94,3.81-4.54,5.2-7.33.65-1.32,1.37-2.63,2.44-3.66.84-.81,1.79-1.5,2.62-2.33,3.84-3.79,6.01-9.2,10.39-12.46.73-.55,1.52-1,2.4-1.23.44-.12.11.01.45-.06.25-.06.32.04-.02-.03,1.57.31,2.24-2.1.66-2.41h0Z"/>
  <path class="cls-5" d="M373.24,290.57c-2.14.02-4.67.24-6.55,1.36-1.15.68-1.87,1.84-1.63,3.2.16.9.72,1.58,1.08,2.4.41.95-.23,1.73-1.04,2.48-1.7,1.57-3.88,2.74-5.95,3.74-2.32,1.11-5.27,1.88-5.83,4.77-.41,2.15-.14,4.49-.27,6.68-.07,1.09-.15,2.19-.35,3.26-.07.37-.14.74-.26,1.09-.15.44-.36.47.09.31-1.5.56-.85,2.97.66,2.41,1.27-.47,1.65-1.8,1.9-3.01.39-1.94.49-3.95.55-5.92.03-.98.04-1.96.05-2.94,0-.6-.04-1.27.2-1.84.4-.96,1.66-1.36,2.53-1.75,1.87-.84,3.7-1.71,5.44-2.81,1.62-1.02,3.47-2.23,4.43-3.95.6-1.07.66-2.24.2-3.37-.17-.43-.4-.81-.62-1.21-.17-.3-.37-.67-.35-.82.18-1.45,4.45-1.58,5.73-1.59,1.61-.02,1.61-2.52,0-2.5h0Z"/>
  <path class="cls-7" d="M550.47,309.06c-2.74,1.13-5.48,2.73-7.53,4.89-1.54,1.62-3.95,5.63-1.76,7.68.13.12.29.24.44.34-.38-.24.11.17-.16-.16-.02-.03.03-.23-.04-.02-.06.16-.05.39-.11.66-.67,2.73-2,5.39-3.29,7.86-1.13,2.16-2.41,4.23-3.75,6.26-.8,1.21-1.76,2.46-2.23,3.84-.19.56-.17,1.12-.14,1.6.06.9-.18,1.83-.39,2.7-.36,1.49-.81,2.97-1.32,4.42s1.88,2.17,2.41.66c.96-2.73,1.82-5.52,1.72-8.42,0,.2-.05.17.05-.06s.08-.25.2-.49c.32-.67.75-1.29,1.15-1.91,1.13-1.74,2.28-3.46,3.31-5.26,1.46-2.53,2.71-5.17,3.78-7.89.52-1.32,1.38-3.1,1.05-4.57-.09-.4-.26-.75-.55-1.05-.13-.13-.29-.23-.43-.34-.2-.16.21.03-.03-.03.05.01.03.14.06.11,0,0-.04-.12-.02-.38.06-.8.26-1.57.66-2.27,1.04-1.83,2.88-3.16,4.65-4.22.69-.42,1.4-.8,2.12-1.16.25-.12.51-.24.76-.36.24-.11.24-.1.05-.02,1.47-.6.82-3.02-.66-2.41h0Z"/>
  <path class="cls-7" d="M552.38,287.27c-3.57,2.78-6.97,5.83-10.15,9.04-2.5,2.52-4.9,5.19-6.87,8.15-2.07,3.11-3.49,6.76-4.32,10.39-.56,2.46-.44,5.4-1.78,7.62-.84,1.38,1.33,2.64,2.16,1.26,1.19-1.97,1.3-4.25,1.68-6.46.62-3.58,1.8-7.19,3.65-10.33,3.36-5.68,8.53-10.38,13.48-14.66,1.28-1.11,2.58-2.21,3.92-3.25,1.27-.99-.51-2.74-1.77-1.77h0Z"/>
  <path class="cls-7" d="M491.96,183.46c-2.31,2.11-4.59,4.28-6.82,6.47-3.22,3.16-6.82,6.41-9.04,10.39s-4.18,9.32-3.68,13.98c.09.84.36,1.45.62,2.23.31.91.01,1.81-.34,2.68-1,2.51-2.65,4.72-3.83,7.14-2.11,4.29-2.98,9.33-3.82,14.01-.28,1.57,2.13,2.25,2.41.66.71-3.98,1.53-8.06,2.9-11.87.92-2.56,2.56-4.81,3.8-7.22.95-1.82,2.04-4.11,1.26-6.18-1.48-3.88.26-8.79,1.92-12.39,1.93-4.17,5.21-7.35,8.43-10.55,2.6-2.59,5.25-5.12,7.96-7.59,1.19-1.09-.58-2.85-1.77-1.77h0Z"/>
  <path class="cls-7" d="M489.85,204.49c-1.88,3.5-3.41,7.5-3.74,11.48-.1,1.21-.06,2.48.27,3.66.44,1.61,1.49,2.99,2.17,4.5.72,1.62,1.23,3.42.98,5.21-.26,1.94-1.37,3.5-2.3,5.16-1.06,1.89-2.18,4.02-2.45,6.2-.19,1.59,2.31,1.58,2.5,0-.05.4-.04.21.02-.04.09-.33.17-.67.28-.99.43-1.3,1.04-2.53,1.7-3.72.92-1.65,1.98-3.2,2.47-5.05.41-1.56.42-3.18.09-4.76-.35-1.71-1.11-3.33-1.92-4.86-.66-1.24-1.26-2.23-1.34-3.65-.14-2.55.62-5.11,1.48-7.47.55-1.5,1.19-2.99,1.95-4.4s-1.39-2.68-2.16-1.26h0Z"/>
  <path class="cls-5" d="M408.39,98.5c-2.85,3.3-4.89,7.71-5.18,12.07-.22,3.29.95,6.45,2.13,9.47.3.78.66,1.54.89,2.35.14.5.12.64-.07,1.26-.69,2.25-1.84,4.43-2.81,6.57-.66,1.45,1.49,2.73,2.16,1.26.93-2.03,1.83-4.08,2.68-6.14.56-1.35.8-2.59.33-4.01-.85-2.53-2.05-4.94-2.61-7.58-.65-3.04.13-6.26,1.46-9.02.55-1.13,1.18-2.22,1.9-3.26.37-.54.56-.81.9-1.2,1.05-1.21-.71-2.99-1.77-1.77h0Z"/>
  <path class="cls-5" d="M410.84,76.4c-3.68,2.99-7.27,6.19-10.47,9.68-1.64,1.79-3.73,3.96-4.3,6.4-.46,1.98-.31,4.19-.19,6.2.14,2.47.31,4.94.17,7.42-.17,2.93-.68,5.82-1.26,8.69-.35,1.75-.94,3.58-.99,5.37-.05,1.61,2.45,1.61,2.5,0,.04-1.24.52-2.83.79-4.15.48-2.38.92-4.77,1.21-7.18.31-2.55.36-5.09.23-7.66-.11-2.19-.32-4.38-.19-6.57.15-2.63,1.74-4.46,3.45-6.37,2.05-2.28,4.29-4.39,6.58-6.43,1.39-1.24,2.8-2.46,4.25-3.64,1.25-1.01-.53-2.77-1.77-1.77h0Z"/>
</svg>